<svg id="Capa_1" enable-background="new 0 0 512 512" height="512" viewBox="0 0 512 512" width="512" xmlns="http://www.w3.org/2000/svg"><g><g><path d="m56.433 452.382v-380.032s8.309-61.626 62.634-61.978 336.501-.352 336.501-.352v430.442h-363.947c0-.001-20.61-2.658-35.188 11.92z" fill="#d2a19d"/><path d="m438.476 440.371h-351.239c-8.505 0-16.207 3.448-21.776 9.028-5.58 5.57-9.028 13.271-9.028 21.776 0 17.011 13.794 30.805 30.805 30.805l347.887-.09s-27.146-35.326 3.351-61.519z" fill="#fff3d9"/><path d="m337.071 200.467h-66.522l6.577-89.118-79.073 128.799h66.521l-6.577 89.118z" fill="#ffe7b1"/><g fill="#ff7d97"><path d="m183.438 49.741 14.51 26.53 26.531 14.51-26.531 14.51-14.51 26.531-14.51-26.531-26.53-14.51 26.53-14.51z"/><path d="m374.589 317.968 14.51 26.53 26.531 14.51-26.531 14.51-14.51 26.531-14.51-26.531-26.53-14.51 26.53-14.51z"/></g></g><g><path d="m453.857 450.46c3.079-.15 5.823-.4 8.259-2.505 2.189-1.892 3.471-4.69 3.471-7.584v-430.351c0-5.533-4.486-10.02-10.02-10.02h-329.311c-4.83 0-9.66.423-14.416 1.268-4.473.796-9.283 1.784-13.47 3.596-30.313 10.953-51.957 39.214-51.957 72.275v394.037c0 22.511 18.314 40.824 40.827 40.824l365.967-.09c5.74 0 10.414-5.03 9.987-10.753-.366-4.896-4.401-8.934-9.313-9.262-10.716-.85-19.099-9.936-19.099-20.718 0-10.774 8.371-19.854 19.075-20.717zm-361.531-420.305v145.076c0 5.533 4.486 10.02 10.02 10.02s10.02-4.486 10.02-10.02v-153.62c4.461-1.017 9.108-1.572 13.891-1.572h319.292v410.312h-333.184v-165.305c0-5.533-4.486-10.02-10.02-10.02s-10.02 4.486-10.02 10.02v165.305h-5.088c-7.436 0-14.564 1.978-20.785 5.674v-358.886c0-19.462 10.257-36.671 25.874-46.984zm-5.088 461.806c-11.461 0-20.785-9.324-20.785-20.785 0-5.552 2.162-10.767 6.101-14.699 3.917-3.926 9.133-6.087 14.684-6.087h333.257c-3.649 6.12-5.752 13.239-5.752 20.786 0 7.513 2.083 14.602 5.701 20.703z"/><circle cx="101.675" cy="220.307" r="10"/><path d="m189.309 245.04c1.772 3.166 5.116 5.127 8.744 5.127h55.735l-5.783 78.361c-.315 4.269 2.218 8.375 6.177 10.003 4.495 1.848 9.812.117 12.354-4.022l79.073-128.799c1.898-3.092 1.977-6.969.205-10.135s-5.116-5.127-8.744-5.127h-55.735l5.783-78.36c.34-4.61-2.517-8.854-6.915-10.273s-9.198.353-11.615 4.293l-79.073 128.798c-1.899 3.091-1.978 6.968-.206 10.134zm74.791-93.323-3.543 48.012c-.206 2.778.755 5.516 2.651 7.557s4.556 3.201 7.341 3.201h48.613l-48.139 78.412 3.543-48.013c.205-2.778-.755-5.517-2.651-7.557-1.896-2.041-4.555-3.201-7.341-3.201h-48.613z"/><path d="m137.59 99.572 23.955 13.102 13.102 23.956c1.757 3.213 5.128 5.211 8.791 5.211s7.033-1.998 8.791-5.211l13.102-23.956 23.956-13.102c3.213-1.757 5.212-5.128 5.212-8.791 0-3.662-1.998-7.033-5.212-8.791l-23.956-13.103-13.102-23.956c-1.757-3.213-5.128-5.211-8.791-5.211s-7.033 1.998-8.791 5.211l-13.102 23.956-23.955 13.104c-3.213 1.757-5.211 5.128-5.211 8.791-.001 3.662 1.998 7.033 5.211 8.79zm36.147-14.51c1.681-.92 3.063-2.301 3.982-3.982l5.72-10.458 5.719 10.458c.919 1.681 2.301 3.063 3.983 3.982l10.457 5.72-10.457 5.719c-1.681.92-3.064 2.301-3.983 3.982l-5.719 10.458-5.72-10.458c-.919-1.681-2.302-3.063-3.983-3.982l-10.457-5.719z"/><path d="m420.438 350.217-23.956-13.102-13.102-23.956c-1.757-3.213-5.128-5.211-8.791-5.211-3.662 0-7.033 1.998-8.791 5.211l-13.102 23.956-23.956 13.102c-3.213 1.757-5.212 5.128-5.212 8.791 0 3.662 1.998 7.033 5.211 8.791l23.956 13.103 13.102 23.956c1.757 3.213 5.128 5.211 8.791 5.211 3.662 0 7.033-1.998 8.791-5.211l13.102-23.956 23.956-13.103c3.214-1.757 5.212-5.128 5.212-8.791s-1.998-7.033-5.211-8.791zm-36.147 14.511c-1.682.92-3.064 2.301-3.983 3.982l-5.719 10.458-5.72-10.458c-.919-1.681-2.301-3.063-3.982-3.982l-10.458-5.72 10.457-5.719c1.681-.92 3.064-2.301 3.983-3.982l5.72-10.458 5.719 10.458c.919 1.681 2.302 3.063 3.983 3.982l10.457 5.719z"/><path d="m341.919 96.777h15.963c5.534 0 10.02-4.486 10.02-10.02 0-5.533-4.486-10.02-10.02-10.02h-15.963c-5.534 0-10.02 4.486-10.02 10.02s4.486 10.02 10.02 10.02z"/><path d="m398.44 96.777h15.963c5.534 0 10.02-4.486 10.02-10.02 0-5.533-4.486-10.02-10.02-10.02h-15.963c-5.534 0-10.02 4.486-10.02 10.02s4.486 10.02 10.02 10.02z"/><path d="m378.161 133.019c5.534 0 10.02-4.486 10.02-10.02v-15.963c0-5.533-4.486-10.02-10.02-10.02s-10.02 4.486-10.02 10.02v15.963c0 5.533 4.486 10.02 10.02 10.02z"/><path d="m378.161 76.498c5.534 0 10.02-4.486 10.02-10.02v-15.962c0-5.533-4.486-10.02-10.02-10.02s-10.02 4.486-10.02 10.02v15.963c0 5.533 4.486 10.019 10.02 10.019z"/><path d="m141.392 374.052h15.963c5.534 0 10.02-4.486 10.02-10.02s-4.486-10.02-10.02-10.02h-15.963c-5.534 0-10.02 4.486-10.02 10.02s4.486 10.02 10.02 10.02z"/><path d="m213.875 354.013h-15.963c-5.534 0-10.02 4.486-10.02 10.02s4.486 10.02 10.02 10.02h15.963c5.534 0 10.02-4.486 10.02-10.02s-4.486-10.02-10.02-10.02z"/><path d="m177.634 374.292c-5.534 0-10.02 4.486-10.02 10.02v15.963c0 5.533 4.486 10.02 10.02 10.02s10.02-4.486 10.02-10.02v-15.963c-.001-5.534-4.486-10.02-10.02-10.02z"/><path d="m177.634 317.77c-5.534 0-10.02 4.486-10.02 10.02v15.963c0 5.533 4.486 10.02 10.02 10.02s10.02-4.486 10.02-10.02v-15.963c-.001-5.534-4.486-10.02-10.02-10.02z"/></g></g></svg>