<?xml version="1.0" encoding="iso-8859-1"?>
<!-- Generator: Adobe Illustrator 19.0.0, SVG Export Plug-In . SVG Version: 6.00 Build 0)  -->
<svg version="1.1" id="Capa_1" xmlns="http://www.w3.org/2000/svg" xmlns:xlink="http://www.w3.org/1999/xlink" x="0px" y="0px"
	 viewBox="0 0 512.001 512.001" style="enable-background:new 0 0 512.001 512.001;" xml:space="preserve">
<g>
	<path style="fill:#CF8BFC;" d="M389.399,80.516c-4.335,0-7.847-3.513-7.847-7.847V52.268c0-4.334,3.512-7.847,7.847-7.847
		c4.335,0,7.847,3.513,7.847,7.847v20.401C397.246,77.003,393.734,80.516,389.399,80.516z"/>
	<path style="fill:#CF8BFC;" d="M389.399,135.441c-4.335,0-7.847-3.513-7.847-7.847v-20.401c0-4.334,3.512-7.847,7.847-7.847
		c4.335,0,7.847,3.513,7.847,7.847v20.401C397.246,131.928,393.734,135.441,389.399,135.441z"/>
	<path style="fill:#CF8BFC;" d="M427.062,97.778h-20.401c-4.335,0-7.847-3.513-7.847-7.847s3.512-7.847,7.847-7.847h20.401
		c4.335,0,7.847,3.513,7.847,7.847S431.396,97.778,427.062,97.778z"/>
	<path style="fill:#CF8BFC;" d="M372.137,97.778h-20.401c-4.335,0-7.847-3.513-7.847-7.847s3.512-7.847,7.847-7.847h20.401
		c4.335,0,7.847,3.513,7.847,7.847S376.472,97.778,372.137,97.778z"/>
</g>
<g>
	<path style="fill:#32314C;" d="M125.484,435.07l-30.401,54.193c-6.35,11.318,4.04,24.703,16.58,21.359l100.391-26.771
		L125.484,435.07z"/>
	<path style="fill:#32314C;" d="M386.517,435.07l30.402,54.193c6.35,11.318-4.04,24.703-16.58,21.359l-100.391-26.771
		L386.517,435.07z"/>
</g>
<path style="fill:#4E4F75;" d="M411.661,230.618c17.788,28.289,28.074,61.764,28.074,97.649
	c0,101.482-82.262,183.734-183.734,183.734S72.266,429.749,72.266,328.267c0-35.885,10.286-69.369,28.083-97.659"/>
<path style="fill:#32314C;" d="M254.648,511.988c-100.857-0.722-182.38-82.695-182.38-183.72c0-35.886,10.285-69.376,28.081-97.666
	h67.43c-10.086,28.29-15.913,61.78-15.913,97.666C151.865,428.948,197.764,510.712,254.648,511.988z"/>
<ellipse style="fill:#4E4F75;" cx="256.005" cy="203.724" rx="174.68" ry="59.186"/>
<path style="fill:#32314C;" d="M227.503,179.927c72.539-5.58,89.977-4.883,129.144,2.648c7.073,1.517,13.097,3.067,18.192,4.592
	c6.628,1.994,6.628,11.388,0,13.382c-5.095,1.509-11.119,3.075-18.192,4.592c-25.055,5.363-56.177,8.563-88.715,9.201
	c-3.955,0.075-7.944,0.117-11.932,0.117c-12.427,0-24.736-0.377-36.669-1.114c-8.329-0.503-16.466-1.19-24.343-2.036
	c-14.254-1.525-27.635-3.603-39.627-6.168c-4.508-0.964-8.589-1.944-12.277-2.924v-0.008c-2.086-0.562-4.064-1.114-5.915-1.659
	c-6.62-1.994-6.62-11.388,0-13.382c0.126-0.042,0.251-0.067,0.377-0.109"/>
<path style="fill:#CF8BFC;" d="M278.307,185.197c0,11.061-3.896,21.208-10.375,29.144c-3.955,0.075-7.944,0.117-11.932,0.117
	c-36.794,0-72.534-3.31-100.639-9.318c-4.517-0.964-8.597-1.944-12.276-2.924c0,0,0-0.008-0.008-0.008
	c-2.849-4.508-4.784-9.637-5.539-15.151c-0.243-1.726-0.369-3.486-0.369-5.279c0-21.125,17.12-38.244,38.236-38.244
	c0.846,0,1.693,0.042,2.522,0.092c-1.542-3.637-2.389-7.633-2.389-11.84c0-16.775,13.6-30.384,30.384-30.384
	s30.384,13.608,30.384,30.384c0,2.556-0.318,5.037-0.913,7.407C259.369,140.852,278.307,160.804,278.307,185.197z"/>
<g>
	<path style="fill:#9966CC;" d="M188.948,131.784c0-14.476,10.127-26.579,23.68-29.632c-2.157-0.486-4.399-0.751-6.703-0.751
		c-16.78,0-30.383,13.603-30.383,30.383c0,16.781,13.603,30.383,30.383,30.383c2.305,0,4.546-0.265,6.703-0.751
		C199.075,158.363,188.948,146.26,188.948,131.784z"/>
	<path style="fill:#9966CC;" d="M209.635,185.197c0,10.626,3.62,20.387,9.695,28.147c-8.329-0.503-16.466-1.19-24.343-2.036
		c-5.154-7.407-8.178-16.407-8.178-26.111c0-25.265,20.479-45.752,45.752-45.752c3.938,0,7.759,0.503,11.412,1.442
		C224.232,145.956,209.635,163.871,209.635,185.197z"/>
</g>
<circle style="fill:#CF8BFC;" cx="195.239" cy="31.774" r="31.774"/>
<path style="fill:#9966CC;" d="M185.09,31.774c0-13.752,8.737-25.461,20.964-29.885C202.678,0.669,199.038,0,195.241,0
	c-17.549,0-31.774,14.226-31.774,31.774s14.226,31.774,31.774,31.774c3.797,0,7.436-0.669,10.811-1.89
	C193.827,57.236,185.09,45.526,185.09,31.774z"/>
<circle style="fill:#CF8BFC;" cx="294.914" cy="79.964" r="26.827"/>
<path style="fill:#9966CC;" d="M286.347,79.967c0-11.611,7.377-21.496,17.699-25.231c-2.85-1.031-5.923-1.596-9.127-1.596
	c-14.816,0-26.827,12.011-26.827,26.827s12.011,26.827,26.827,26.827c3.206,0,6.278-0.564,9.127-1.596
	C293.724,101.463,286.347,91.577,286.347,79.967z"/>
<g>
</g>
<g>
</g>
<g>
</g>
<g>
</g>
<g>
</g>
<g>
</g>
<g>
</g>
<g>
</g>
<g>
</g>
<g>
</g>
<g>
</g>
<g>
</g>
<g>
</g>
<g>
</g>
<g>
</g>
</svg>
