<svg id="Capa_1" enable-background="new 0 0 512 512" height="512" viewBox="0 0 512 512" width="512" xmlns="http://www.w3.org/2000/svg"><g><g><path d="m297.282 163.258s36.563-3.224 66.378-47.841c2.662-3.983 8.782-2.93 9.936 1.72l5.303 21.381 18.304-.302c4.566-.075 7.249 5.114 4.529 8.782-10.542 14.217-36.221 42.087-84.819 59.141z" fill="#9a5e5f"/><g><g><path d="m299.679 80.426 5.273-57.756c.744-8.145-5.669-15.169-13.848-15.169h-69.938c-8.179 0-14.591 7.024-13.848 15.169l5.273 57.756z" fill="#fca863"/><path d="m248.2 18.02c0 16.01-12.98 28.99-29 28.99-3.45 0-6.75-.6-9.82-1.71l-2.06-22.63c-.75-8.15 5.67-15.17 13.85-15.17h25.05c1.28 3.26 1.98 6.81 1.98 10.52z" fill="#fee7c9"/><path d="m304.945 22.671-5.27 57.749h-32.246l5.27-57.749c.737-8.148-5.673-15.171-13.85-15.171h32.26c8.177 0 14.587 7.022 13.836 15.171z" fill="#fc9744"/></g></g><g><path d="m305.939 141.865v-42.194h-99.878v42.194c0 28.418-12.342 55.361-33.647 74.167-46.897 41.397-78.25 111.935-78.25 170.727 0 89.379 72.456 117.741 161.836 117.741s161.836-28.362 161.836-117.742c0-58.792-31.354-129.33-78.25-170.727-21.305-18.806-33.647-45.748-33.647-74.166z" fill="#915eb2"/><path d="m417.07 370.44c-27.04 9.44-56.46 6.4-73.26 3.27.36-1.97.55-3.99.55-6.02v-56.61c0-9.18-2.59-17.89-7.18-25.32 8.15-8.14 21.22-24.54 23.62-47.82-3.09-3.71-6.29-7.29-9.59-10.73-2.83.93-4.93 3.53-5.11 6.68-1.15 19.23-11.89 33.31-18.74 40.42-4.94-4.2-10.76-7.45-17.24-9.42-17.6-5.34-35.79-8.01-53.99-8.01-18.19 0-36.38 2.67-53.98 8.01-6.56 1.99-12.44 5.3-17.41 9.57-6.84-7.02-17.67-21.09-18.84-40.57-.18-3.15-2.29-5.75-5.11-6.68-3.3 3.44-6.5 7.02-9.59 10.73 2.41 23.44 15.65 39.91 23.79 47.99-4.52 7.4-7.08 16.04-7.08 25.15v56.61c0 2.02.19 4.01.54 5.97-16.75 3.15-46.34 6.26-73.52-3.22-.49 5.24-.74 10.43-.76 15.53 14.24 4.39 28.69 5.89 41.8 5.89 15.62 0 29.34-2.13 38.54-4.05 1.01 1.38 2.13 2.69 3.35 3.91l8.18 8.18c4.62 4.61 11.67 5.76 17.51 2.85l4.01-2c9.25-4.63 19.95 2.84 18.81 13.12-.04.35-.05.7-.05 1.04 0 5.03 4.09 9.23 9.25 9.23h41.13c5.51 0 9.8-4.79 9.19-10.27-.05-.51-.08-1.01-.08-1.51 0-9.48 10.1-16.01 18.9-11.61l4 2c5.85 2.91 12.9 1.76 17.51-2.85l8.19-8.18c1.21-1.21 2.31-2.5 3.32-3.86 9.19 1.9 22.81 4 38.3 4 13.1 0 27.56-1.5 41.8-5.88-.02-5.1-.27-10.29-.76-15.54zm-172.44-18.68c-1.51 12.34-14.34 20.91-28.64 19.16-14.31-1.75-24.67-13.18-23.16-25.52s14.34-20.91 28.64-19.15c14.31 1.75 24.68 13.18 23.16 25.51zm52.23 19.06c-14.27 2.01-27.24-6.34-28.97-18.65s8.44-23.91 22.71-25.92 27.24 6.35 28.97 18.65c1.74 12.31-8.43 23.92-22.71 25.92z" fill="#804ea0"/><path d="m339.59 216.03c-21.31-18.8-33.65-45.75-33.65-74.17v-42.19h-99.88v42.19c0 25.65-10.05 50.11-27.69 68.45l103.006 6.758c13.971.917 27.072 7.283 36.247 17.858 36.383 41.934 59.627 101.229 59.627 151.833 0 82.5-61.74 113.02-141.54 117.22 6.64.35 13.42.52 20.29.52 89.38 0 161.84-28.36 161.84-117.74 0-58.789-31.36-129.329-78.25-170.729z" fill="#804ea0"/><path d="m321.319 194.63c-9.918-15.632-15.38-33.871-15.38-52.765v-42.194h-99.878v42.194c0 15.656-3.753 30.861-10.68 44.509z" fill="#c49292"/><path d="m321.32 194.63-42.3-2.77c-8.83-15-13.67-32.21-13.67-50v-42.19h40.59v42.19c0 18.9 5.46 37.14 15.38 52.77z" fill="#b88081"/></g><path d="m305.536 115.436h-99.073c-8.976 0-16.253-7.277-16.253-16.253v-9.113c0-8.976 7.277-16.253 16.253-16.253h99.073c8.976 0 16.253 7.277 16.253 16.253v9.113c0 8.976-7.277 16.253-16.253 16.253z" fill="#e5d8ec"/><path d="m321.79 90.075v9.111c0 8.969-7.272 16.255-16.255 16.255h-33.262c8.983 0 16.255-7.286 16.255-16.255v-9.111c0-8.983-7.273-16.255-16.255-16.255h33.262c8.982 0 16.255 7.272 16.255 16.255z" fill="#cdb4db"/></g><g><path d="m334.865 258.483c-6.021-8.119-14.58-14.345-24.75-17.438-17.595-5.34-35.788-8.014-53.98-8.014-18.193 0-36.385 2.674-53.98 8.014-20.339 6.173-34.248 24.933-34.248 46.184v56.611c0 9.013 3.577 17.656 9.951 24.034l8.185 8.176c4.616 4.616 11.666 5.763 17.508 2.849l4.005-1.998c9.258-4.625 19.955 2.84 18.817 13.123-.039.349-.057.702-.057 1.038 0 5.035 4.092 9.236 9.253 9.236h41.128c5.515 0 9.807-4.795 9.197-10.274-.057-.51-.083-1.012-.083-1.505 0-9.489 10.1-16.016 18.899-11.618l4.005 1.998c5.842 2.914 12.892 1.767 17.508-2.849l8.185-8.176c6.374-6.378 9.956-15.021 9.956-24.034v-56.61c-.001-10.628-3.478-20.632-9.499-28.747zm-118.876 88.592c-14.307-1.755-24.672-13.183-23.161-25.521 1.516-12.337 14.341-20.913 28.643-19.155 14.307 1.755 24.677 13.18 23.161 25.517-1.514 12.337-14.34 20.913-28.643 19.159zm103.586-26.017c1.731 12.308-8.438 23.917-22.712 25.921-14.27 2.004-27.243-6.347-28.974-18.656-1.727-12.309 8.438-23.913 22.712-25.917 14.27-2.007 27.243 6.344 28.974 18.652z" fill="#fff1e2"/></g><g><path d="m292.668 354.773c1.723 0 3.475-.12 5.238-.368 8.684-1.219 16.481-5.331 21.956-11.58 5.75-6.563 8.286-14.664 7.14-22.811s-5.816-15.234-13.151-19.957c-6.985-4.497-15.614-6.303-24.291-5.078-18.343 2.575-31.396 18-29.097 34.389 2.081 14.807 16.002 25.405 32.205 25.405zm-1.022-44.94c1.08-.152 2.154-.227 3.215-.227 3.969 0 7.743 1.052 10.869 3.063 3.609 2.324 5.889 5.674 6.417 9.434.528 3.759-.739 7.607-3.568 10.837-3.105 3.544-7.636 5.892-12.759 6.611-10.154 1.417-19.353-4.08-20.504-12.271-1.149-8.194 6.175-16.021 16.33-17.447z"/><path d="m215.077 354.52c1.546.189 3.079.281 4.592.281 16.48 0 30.561-10.932 32.408-25.97 1.004-8.166-1.673-16.222-7.537-22.682-5.583-6.151-13.451-10.127-22.153-11.194-8.704-1.064-17.297.885-24.201 5.502-7.252 4.85-11.798 12.018-12.802 20.186-2.012 16.424 11.307 31.622 29.693 33.877zm-14.804-32.051c.463-3.768 2.683-7.156 6.252-9.543 3.192-2.135 7.093-3.257 11.208-3.257.933 0 1.877.058 2.826.175 5.135.63 9.707 2.898 12.874 6.387 2.885 3.179 4.219 7.004 3.756 10.771v.001c-1.009 8.212-10.107 13.876-20.287 12.629-10.176-1.249-17.636-8.949-16.629-17.163z"/><path d="m430.177 358.442c-1.255-3.209-4.476-5.055-7.744-4.721-3.112-18.305-8.692-37.142-16.578-55.727-1.618-3.813-6.02-5.59-9.834-3.975-3.813 1.618-5.592 6.021-3.975 9.834 7.715 18.18 13.069 36.552 15.91 54.293-21.8 5.416-44.045 3.812-59.172 1.421 2.017-4.927 3.077-10.245 3.077-15.727v-56.611c0-9.18-2.208-18.029-6.429-26.001 3.626-4.853 7.285-10.801 10.164-17.772 7.511 9.067 14.542 19.033 20.852 29.633 1.403 2.357 3.895 3.665 6.452 3.665 1.304 0 2.626-.341 3.829-1.057 3.559-2.118 4.727-6.722 2.608-10.28-8.686-14.592-18.373-27.755-28.925-39.344.302-2.041.526-4.136.655-6.289.247-4.135-2.905-7.688-7.04-7.934-2.17-.148-4.173.664-5.628 2.062-1.275-1.187-2.557-2.36-3.853-3.504-1.884-1.663-3.69-3.395-5.418-5.189 37.903-17.554 59.098-40.899 68.625-53.753 2.97-4.007 3.398-9.252 1.116-13.688-2.286-4.44-6.79-7.103-11.794-7.058l-12.333.202-3.867-15.599c-1.266-5.074-5.251-8.781-10.401-9.674-5.156-.893-10.155 1.256-13.051 5.603-14.668 21.952-30.865 33.277-43.575 39.117-.267-2.816-.41-5.653-.41-8.505v-20.287c9.223-3.264 15.85-12.068 15.85-22.396v-9.111c0-12.098-9.094-22.106-20.804-23.563l3.933-43.15c.55-5.975-1.454-11.943-5.497-16.376-4.045-4.436-9.813-6.981-15.82-6.981h-69.93c-6.007 0-11.774 2.545-15.821 6.981-4.043 4.433-6.047 10.401-5.498 16.369l3.931 43.122c-11.84 1.338-21.072 11.408-21.072 23.598v9.112c0 10.328 6.627 19.132 15.851 22.396v20.286c0 26.108-11.339 51.092-31.11 68.543-1.296 1.144-2.577 2.32-3.851 3.509-1.454-1.395-3.456-2.207-5.63-2.067-4.135.246-7.287 3.799-7.04 7.934.13 2.17.356 4.281.661 6.338-31.268 34.454-54.18 81.904-61.988 127.602-3.28-.352-6.52 1.498-7.78 4.718-1.51 3.856.393 8.208 4.25 9.718.497.195.997.373 1.496.56-.594 6.086-.904 12.112-.904 18.039-.001 81.934 58.554 125.242 169.335 125.242s169.336-43.308 169.336-125.241c0-5.903-.317-11.93-.907-18.038.499-.187 1-.365 1.498-.561 3.857-1.51 5.76-5.861 4.25-9.718zm-218.692-195.818 88.269-4.204c1.537 9.65 4.405 19.013 8.484 27.836l-101.666-6.664c2.103-5.501 3.748-11.175 4.913-16.968zm155.899-39.39 4.236 17.09c.831 3.35 3.837 5.695 7.278 5.695.042 0 .083 0 .125-.001l14.18-.232c-9.977 12.515-29.885 32.441-63.856 47.389-5.77-8.461-10.082-17.808-12.749-27.645 14.454-5.961 33.544-18 50.786-42.296zm-71.544-106.143c1.226 1.343 1.809 3.08 1.641 4.898l-4.041 44.328h-74.611l-1.081-11.854c.484.019.966.046 1.451.046 20.126 0 36.5-16.369 36.5-36.49 0-1.011-.054-2.017-.137-3.02h35.538c1.827.001 3.51.743 4.74 2.092zm-79.409 0c1.229-1.349 2.912-2.091 4.739-2.091h19.319c.14.995.211 2.004.211 3.02 0 11.85-9.645 21.49-21.5 21.49-.952 0-1.898-.064-2.831-.187l-1.581-17.341c-.166-1.81.417-3.548 1.643-4.891zm-18.721 72.979c0-4.826 3.927-8.753 8.753-8.753h99.073c4.826 0 8.753 3.927 8.753 8.753v9.112c0 4.826-3.927 8.753-8.753 8.753h-45.324c-4.142 0-7.5 3.357-7.5 7.5s3.358 7.5 7.5 7.5h38.227v18.93c0 .534.014 1.066.022 1.599l-85.052 4.051c.101-1.877.152-3.761.152-5.65v-18.93h11.256c4.142 0 7.5-3.357 7.5-7.5s-3.358-7.5-7.5-7.5h-18.354c-4.826 0-8.753-3.927-8.753-8.753zm-20.332 131.584c9.016-7.958 16.516-17.271 22.313-27.481l117.43 7.698c4.949 7.215 10.806 13.874 17.501 19.784 3.212 2.836 6.378 5.86 9.491 9.036-1.894 6.831-4.87 12.755-8.049 17.655-6.538-6.743-14.633-11.698-23.771-14.478-18.229-5.532-37.123-8.337-56.159-8.337s-37.93 2.805-56.158 8.337c-9.399 2.853-17.567 7.961-24.007 14.625-3.199-4.914-6.195-10.879-8.096-17.791 3.096-3.152 6.26-6.184 9.505-9.048zm-10.696 39.726c-4.04 7.769-6.275 16.578-6.275 25.849v10.402c0 4.143 3.358 7.5 7.5 7.5s7.5-3.357 7.5-7.5v-10.402c0-4.781.82-9.39 2.335-13.686 2.029 1.83 3.403 2.868 3.643 3.045 1.341.991 2.904 1.469 4.453 1.469 2.298 0 4.566-1.052 6.037-3.042 2.462-3.331 1.758-8.026-1.573-10.489-.066-.048-2.01-1.517-4.77-4.262 4.881-5.535 11.307-9.768 18.801-12.043 16.814-5.103 34.243-7.69 51.802-7.69s34.988 2.588 51.797 7.689c7.269 2.211 13.639 6.303 18.619 11.916-2.795 2.81-4.778 4.333-4.87 4.402-3.316 2.466-4.014 7.151-1.556 10.477 1.471 1.99 3.739 3.042 6.037 3.042 1.549 0 3.111-.478 4.453-1.469.248-.183 1.696-1.274 3.83-3.214 1.591 4.399 2.418 9.064 2.418 13.854v56.611c0 4.495-1.118 8.82-3.214 12.661-2.265-.573-3.563-.965-3.677-1-3.956-1.237-8.159.969-9.394 4.922-.956 3.06.154 6.265 2.534 8.133l-2.193 2.191c-2.338 2.338-5.896 2.918-8.856 1.441l-4-1.996c-6.42-3.207-13.89-2.874-19.984.893-6.116 3.781-9.768 10.299-9.768 17.435 0 .78.043 1.564.129 2.336.071.641-.197 1.092-.436 1.358-.239.267-.66.585-1.308.585h-41.127c-1.083 0-1.753-.901-1.753-1.736 0-.066.002-.136.011-.213.829-7.489-2.495-14.819-8.676-19.13-6.18-4.31-14.205-4.896-20.943-1.529l-4.005 1.998c-2.959 1.479-6.517.897-8.859-1.444l-2.306-2.303c2.276-1.882 3.315-5.016 2.383-8.01-1.23-3.952-5.433-6.156-9.388-4.932-.075.023-1.294.394-3.448.943-2.074-3.826-3.178-8.129-3.178-12.601v-10.813c0-4.143-3.358-7.5-7.5-7.5s-7.5 3.357-7.5 7.5v10.813c0 5.467 1.055 10.772 3.061 15.687-15.133 2.414-37.511 4.066-59.438-1.384 6.447-40.433 25.697-82.577 52.362-114.711 2.912 7.056 6.622 13.061 10.29 17.947zm243.654 125.379c0 73.15-51.926 110.241-154.336 110.241s-154.336-37.091-154.336-110.241c0-4.479.208-9.023.573-13.604 11.576 2.71 23.097 3.7 33.736 3.7 14.563 0 27.47-1.849 36.605-3.654l8.162 8.153c6.907 6.906 17.421 8.615 26.159 4.256l4.008-1.999c2.668-1.335 4.85-.154 5.664.412.815.568 2.675 2.211 2.348 5.168-.068.612-.103 1.241-.103 1.871 0 9.229 7.516 16.736 16.753 16.736h41.127c4.761 0 9.312-2.035 12.486-5.583 3.174-3.547 4.691-8.294 4.165-13.019-.024-.223-.037-.444-.037-.678 0-2.738 1.856-4.182 2.655-4.676.788-.487 2.891-1.484 5.396-.231l4.004 1.998c8.741 4.362 19.253 2.65 26.157-4.254l8.122-8.112c9.12 1.792 21.934 3.611 36.382 3.611 10.639 0 22.163-.991 33.742-3.702.368 4.601.568 9.145.568 13.607z"/><path d="m278.413 37.763h.102c4.142 0 7.5-3.357 7.5-7.5s-3.358-7.5-7.5-7.5h-.102c-4.142 0-7.5 3.357-7.5 7.5s3.358 7.5 7.5 7.5z"/><path d="m265.299 56.575h.102c4.142 0 7.5-3.357 7.5-7.5s-3.358-7.5-7.5-7.5h-.102c-4.142 0-7.5 3.357-7.5 7.5s3.358 7.5 7.5 7.5z"/></g></g></svg>